HIERARCHY
ROOT hip
{
  OFFSET 0 0 0
  CHANNELS 6 Xposition Yposition Zposition Zrotation Yrotation Xrotation
  JOINT abdomen
  {
    OFFSET 0 20.6881 -0.73152
    CHANNELS 3 Zrotation Xrotation Yrotation
    JOINT chest
    {
      OFFSET 0 11.7043 -0.48768
      CHANNELS 3 Zrotation Xrotation Yrotation
      JOINT neck
      {
        OFFSET 0 22.1894 -2.19456
        CHANNELS 3 Zrotation Xrotation Yrotation
        JOINT head
        {
          OFFSET -0.24384 7.07133 1.2192
          CHANNELS 3 Zrotation Xrotation Yrotation
          JOINT leftEye
          {
            OFFSET 4.14528 8.04674 8.04672
            CHANNELS 3 Zrotation Xrotation Yrotation
            End Site
            {
              OFFSET 1 0 0
            }
          }
          JOINT rightEye
          {
            OFFSET -3.6576 8.04674 8.04672
            CHANNELS 3 Zrotation Xrotation Yrotation
            End Site
            {
              OFFSET 1 0 0
            }
          }
        }
      }
      JOINT rCollar
      {
        OFFSET -2.68224 19.2634 -4.8768
        CHANNELS 3 Zrotation Xrotation Yrotation
        JOINT rShldr
        {
          OFFSET -8.77824 -1.95073 1.46304
          CHANNELS 3 Zrotation Xrotation Yrotation
          JOINT rForeArm
          {
            OFFSET -28.1742 -1.7115 0.48768
            CHANNELS 3 Zrotation Xrotation Yrotation
            JOINT rHand
            {
              OFFSET -22.5879 0.773209 7.07136
              CHANNELS 3 Zrotation Xrotation Yrotation
              JOINT rThumb1
              {
                OFFSET -1.2192 -0.487915 3.41376
                CHANNELS 3 Zrotation Xrotation Yrotation
                JOINT rThumb2
                {
                  OFFSET -3.37035 -0.52449 3.41376
                  CHANNELS 3 Zrotation Xrotation Yrotation
                  End Site
                  {
                    OFFSET -1.78271 -1.18214 1.43049
                  }
                }
              }
              JOINT rIndex1
              {
                OFFSET -7.75947 0.938293 5.60832
                CHANNELS 3 Zrotation Xrotation Yrotation
                JOINT rIndex2
                {
                  OFFSET -2.54057 -0.884171 1.56538
                  CHANNELS 3 Zrotation Xrotation Yrotation
                  End Site
                  {
                    OFFSET -1.62519 -0.234802 1.16502
                  }
                }
              }
              JOINT rMid1
              {
                OFFSET -8.24714 1.18213 3.41376
                CHANNELS 3 Zrotation Xrotation Yrotation
                JOINT rMid2
                {
                  OFFSET -3.10165 -0.590103 1.0647
                  CHANNELS 3 Zrotation Xrotation Yrotation
                  End Site
                  {
                    OFFSET -2.48547 -0.328903 0.83742
                  }
                }
              }
              JOINT rRing1
              {
                OFFSET -8.82822 0.546677 1.51678
                CHANNELS 3 Zrotation Xrotation Yrotation
                JOINT rRing2
                {
                  OFFSET -2.60934 -0.819778 -0.0198488
                  CHANNELS 3 Zrotation Xrotation Yrotation
                  End Site
                  {
                    OFFSET -2.33842 -0.294052 0.168128
                  }
                }
              }
              JOINT rPinky1
              {
                OFFSET -8.27202 -0.0477905 -0.4584
                CHANNELS 3 Zrotation Xrotation Yrotation
                JOINT rPinky2
                {
                  OFFSET -1.82734 -0.647385 -0.700984
                  CHANNELS 3 Zrotation Xrotation Yrotation
                  End Site
                  {
                    OFFSET -1.69225 -0.51767 -0.607171
                  }
                }
              }
            }
          }
        }
      }
      JOINT lCollar
      {
        OFFSET 2.68224 19.2634 -4.8768
        CHANNELS 3 Zrotation Xrotation Yrotation
        JOINT lShldr
        {
          OFFSET 8.77824 -1.95073 1.46304
          CHANNELS 3 Zrotation Xrotation Yrotation
          JOINT lForeArm
          {
            OFFSET 28.1742 -1.7115 0.48768
            CHANNELS 3 Zrotation Xrotation Yrotation
            JOINT lHand
            {
              OFFSET 22.5879 0.773209 7.07136
              CHANNELS 3 Zrotation Xrotation Yrotation
              JOINT lThumb1
              {
                OFFSET 1.2192 -0.487915 3.41376
                CHANNELS 3 Zrotation Xrotation Yrotation
                JOINT lThumb2
                {
                  OFFSET 3.37035 -0.52449 3.41376
                  CHANNELS 3 Zrotation Xrotation Yrotation
                  End Site
                  {
                    OFFSET 1.78271 -1.18214 1.43049
                  }
                }
              }
              JOINT lIndex1
              {
                OFFSET 7.75947 0.938293 5.60832
                CHANNELS 3 Zrotation Xrotation Yrotation
                JOINT lIndex2
                {
                  OFFSET 2.54057 -0.884171 1.56538
                  CHANNELS 3 Zrotation Xrotation Yrotation
                  End Site
                  {
                    OFFSET 1.62519 -0.234802 1.16502
                  }
                }
              }
              JOINT lMid1
              {
                OFFSET 8.24714 1.18213 3.41376
                CHANNELS 3 Zrotation Xrotation Yrotation
                JOINT lMid2
                {
                  OFFSET 3.10165 -0.590103 1.0647
                  CHANNELS 3 Zrotation Xrotation Yrotation
                  End Site
                  {
                    OFFSET 2.48547 -0.328903 0.83742
                  }
                }
              }
              JOINT lRing1
              {
                OFFSET 8.82822 0.546677 1.51678
                CHANNELS 3 Zrotation Xrotation Yrotation
                JOINT lRing2
                {
                  OFFSET 2.60934 -0.819778 -0.0198488
                  CHANNELS 3 Zrotation Xrotation Yrotation
                  End Site
                  {
                    OFFSET 2.33842 -0.294052 0.168128
                  }
                }
              }
              JOINT lPinky1
              {
                OFFSET 8.27202 -0.0477905 -0.4584
                CHANNELS 3 Zrotation Xrotation Yrotation
                JOINT lPinky2
                {
                  OFFSET 1.82734 -0.647385 -0.700984
                  CHANNELS 3 Zrotation Xrotation Yrotation
                  End Site
                  {
                    OFFSET 1.69225 -0.51767 -0.607171
                  }
                }
              }
            }
          }
        }
      }
    }
  }
  JOINT rButtock
  {
    OFFSET -8.77824 4.35084 1.2192
    CHANNELS 3 Zrotation Xrotation Yrotation
    JOINT rThigh
    {
      OFFSET 0 -1.70687 -2.19456
      CHANNELS 3 Zrotation Xrotation Yrotation
      JOINT rShin
      {
        OFFSET 0 -36.8199 0.73152
        CHANNELS 3 Zrotation Xrotation Yrotation
        JOINT rFoot
        {
          OFFSET 0.73152 -45.1104 -5.12064
          CHANNELS 3 Zrotation Xrotation Yrotation
          End Site
          {
            OFFSET -1.1221 -3.69964 12.103
          }
        }
      }
    }
  }
  JOINT lButtock
  {
    OFFSET 8.77824 4.35084 1.2192
    CHANNELS 3 Zrotation Xrotation Yrotation
    JOINT lThigh
    {
      OFFSET 0 -1.70687 -2.19456
      CHANNELS 3 Zrotation Xrotation Yrotation
      JOINT lShin
      {
        OFFSET 0 -36.8199 0.73152
        CHANNELS 3 Zrotation Xrotation Yrotation
        JOINT lFoot
        {
          OFFSET -0.73152 -45.1104 -5.12064
          CHANNELS 3 Zrotation Xrotation Yrotation
          End Site
          {
            OFFSET 1.1221 -3.69964 12.103
          }
        }
      }
    }
  }
}
MOTION
Frames:	8
Frame Time:	0.00833333
-159.847 67.0423 -80.1001 -0.8617 51.8938 12.711 -7.04973 22.372 21.8941 1.99432 0.11554 5.79512 -1.57317 -26.7422 7.33299 -21.5515 -18.9299 15.4967 -0.0 0.0 0.0 -0.0 0.0 0.0 -6.62816e-13 -2.58521e-12 8.86946e-13 67.7475 -17.937 36.6673 -8.54518 -3.24258 15.4128 -0.654024 27.042 3.90941 -4.07384e-09 -1.37267e-08 5.41669e-09 -6.92823e-09 -2.37436e-08 9.43491e-09 -4.07383e-09 -1.37267e-08 5.41668e-09 7.73091 5.47488 0.417314 -4.07384e-09 -1.37267e-08 5.4167e-09 2.90554 0.965183 0.102902 -4.07384e-09 -1.37267e-08 5.41669e-09 10.2786 0.731801 0.0259123 -4.07384e-09 -1.37267e-08 5.41671e-09 2.22167 -0.733487 -0.20892 -6.63034e-13 -2.58524e-12 8.8667e-13 -65.5902 35.8683 21.1819 14.7592 -7.59135 -27.0763 0.547497 -20.5955 3.02619 6.56952e-09 -1.31706e-08 -2.51106e-09 1.13644e-08 -2.26201e-08 -4.25625e-09 6.56951e-09 -1.31706e-08 -2.51105e-09 -7.73091 5.47488 -0.417314 6.56952e-09 -1.31706e-08 -2.51105e-09 -2.90554 0.965183 -0.102902 6.56951e-09 -1.31706e-08 -2.51105e-09 -10.2786 0.731801 -0.0259123 6.56952e-09 -1.31706e-08 -2.51106e-09 -2.22167 -0.733487 0.20892 -2.03217e-16 0.0 -3.88251e-19 -17.7145 29.8022 8.32063 0.0633742 -2.00138 0.530069 -6.93723 -13.6215 -19.9436 2.03217e-16 0.0 3.88251e-19 58.0027 -46.8951 46.207 1.0459 58.4918 -1.14259 0.507583 1.47329 -0.799666
-158.251 66.4506 -79.6422 0.0366 53.0303 13.396 -9.2157 22.7206 23.9377 1.38923 0.639823 6.24067 -4.64249 -28.7389 4.23248 -19.6428 -19.0482 12.0379 -0.0 0.0 0.0 -0.0 0.0 0.0 -5.0866e-13 -2.62691e-12 6.06929e-13 69.9823 -21.0295 35.7041 -6.87101 -2.46211 12.1178 -1.78849 37.1975 5.96094 -4.07593e-09 -8.31504e-09 4.48142e-09 -6.89623e-09 -1.43335e-08 7.83793e-09 -4.07593e-09 -8.31503e-09 4.48141e-09 7.73091 5.47488 0.417314 -4.07594e-09 -8.31504e-09 4.48143e-09 2.90554 0.965183 0.102902 -4.07594e-09 -8.31503e-09 4.48142e-09 10.2786 0.731801 0.0259123 -4.07594e-09 -8.31503e-09 4.48144e-09 2.22167 -0.733487 -0.20892 -5.08901e-13 -2.62693e-12 6.0664e-13 -59.6432 37.446 15.488 15.331 -8.08676 -28.2584 0.618309 -21.8041 3.22203 3.612e-09 -7.94306e-09 -1.92585e-09 6.25271e-09 -1.36522e-08 -3.27836e-09 3.612e-09 -7.94305e-09 -1.92584e-09 -7.73091 5.47488 -0.417314 3.612e-09 -7.94306e-09 -1.92584e-09 -2.90554 0.965183 -0.102902 3.61199e-09 -7.94305e-09 -1.92584e-09 -10.2786 0.731801 -0.0259123 3.612e-09 -7.94306e-09 -1.92585e-09 -2.22167 -0.733487 0.20892 -2.03217e-16 0.0 -3.88251e-19 -17.3667 31.125 7.60814 0.0621939 -1.95321 0.521273 -6.66072 -11.9401 -20.9111 2.03217e-16 0.0 3.88251e-19 57.5583 -47.2526 46.7093 1.04099 58.4553 -1.14795 0.456752 2.5559 -1.57062
-156.69 65.83 -79.1892 0.9312 54.2043 14.345 -11.0686 22.8968 25.3529 1.01096 1.05103 6.52753 -7.54 -29.3681 1.50253 -17.6356 -19.8582 8.98086 -0.0 0.0 0.0 -0.0 0.0 0.0 -3.84687e-13 -2.37862e-12 3.76498e-13 70.94 -22.5559 34.2109 -5.83443 -1.97044 10.1898 -3.12593 43.8438 7.75748 -3.77709e-09 -4.3396e-09 3.60144e-09 -6.36676e-09 -7.42919e-09 6.32281e-09 -3.77708e-09 -4.3396e-09 3.60143e-09 7.73091 5.47488 0.417314 -3.77709e-09 -4.3396e-09 3.60144e-09 2.90554 0.965183 0.102902 -3.77709e-09 -4.3396e-09 3.60143e-09 10.2786 0.731801 0.0259123 -3.7771e-09 -4.3396e-09 3.60145e-09 2.22167 -0.733487 -0.20892 -3.84933e-13 -2.37864e-12 3.762e-13 -54.2799 38.1537 10.0858 15.8289 -8.52925 -29.3123 0.670793 -22.6071 3.35498 1.57312e-09 -4.23669e-09 -1.46401e-09 2.72903e-09 -7.29365e-09 -2.50365e-09 1.57311e-09 -4.23668e-09 -1.464e-09 -7.73091 5.47488 -0.417314 1.57312e-09 -4.23669e-09 -1.464e-09 -2.90554 0.965183 -0.102902 1.57311e-09 -4.23668e-09 -1.464e-09 -10.2786 0.731801 -0.0259123 1.57312e-09 -4.23669e-09 -1.46401e-09 -2.22167 -0.733487 0.20892 -2.03217e-16 0.0 -3.88251e-19 -16.5572 31.3789 6.4622 0.0602112 -0.34838 0.530585 -6.5355 -10.8288 -21.7338 2.03217e-16 0.0 3.88251e-19 57.525 -47.7673 47.3154 1.06795 58.8294 -1.16657 0.378502 3.0603 -2.5376
-155.397 65.2043 -78.7762 1.753 55.5251 15.8098 -12.4788 22.7612 25.9342 0.964246 1.33237 6.60891 -10.0302 -27.8719 -0.64662 -15.4486 -21.9819 6.33841 -0.0 0.0 0.0 -0.0 0.0 0.0 -2.9956e-13 -1.67691e-12 2.05505e-13 70.2243 -21.6524 31.8089 -5.69457 -1.84024 10.0473 -3.7257 45.8857 8.44192 -2.98955e-09 -2.33268e-09 2.71728e-09 -5.02826e-09 -3.96272e-09 4.77946e-09 -2.98955e-09 -2.33268e-09 2.71727e-09 7.73091 5.47488 0.417314 -2.98955e-09 -2.33268e-09 2.71729e-09 2.90554 0.965183 0.102902 -2.98956e-09 -2.33268e-09 2.71728e-09 10.2786 0.731801 0.0259123 -2.98956e-09 -2.33268e-09 2.7173e-09 2.22167 -0.733487 -0.20892 -2.99786e-13 -1.67693e-12 2.05201e-13 -50.012 37.7911 5.34957 16.218 -8.88301 -30.1529 0.69039 -22.8762 3.40041 8.60047e-10 -2.70226e-09 -1.18408e-09 1.49794e-09 -4.66155e-09 -2.02893e-09 8.60047e-10 -2.70226e-09 -1.18407e-09 -7.73091 5.47488 -0.417314 8.60053e-10 -2.70226e-09 -1.18408e-09 -2.90554 0.965183 -0.102902 8.6004e-10 -2.70226e-09 -1.18408e-09 -10.2786 0.731801 -0.0259123 8.60051e-10 -2.70226e-09 -1.18409e-09 -2.22167 -0.733487 0.20892 -2.03217e-16 0.0 -3.88251e-19 -15.1869 30.1114 4.82819 0.0557776 3.44413 0.572321 -6.8134 -10.5703 -22.6654 2.03217e-16 0.0 3.88251e-19 58.1069 -48.5365 48.1137 1.13945 59.7814 -1.20434 0.217077 2.72561 -3.80792
-154.49 64.6596 -78.4331 2.5506 57.8101 17.4484 -13.6145 22.4506 25.9274 1.12928 1.55321 6.54233 -12.012 -24.9508 -2.32428 -13.3078 -25.0041 3.91392 -0.0 0.0 0.0 -0.0 0.0 0.0 -2.26069e-13 -6.31706e-13 5.13796e-14 68.6341 -18.8096 28.8411 -6.37405 -2.14261 11.2737 -3.47848 44.7583 8.1074 -1.84051e-09 -1.19413e-09 1.7289e-09 -3.08949e-09 -2.01604e-09 3.04104e-09 -1.8405e-09 -1.19412e-09 1.72888e-09 7.73091 5.47488 0.417314 -1.84051e-09 -1.19413e-09 1.7289e-09 2.90554 0.965183 0.102902 -1.84051e-09 -1.19413e-09 1.7289e-09 10.2786 0.731801 0.0259123 -1.84052e-09 -1.19413e-09 1.72891e-09 2.22167 -0.733487 -0.20892 -2.26256e-13 -6.31724e-13 5.10721e-14 -46.6288 36.6358 1.00014 16.5361 -9.18299 -30.8415 0.681981 -22.7474 3.37902 8.04218e-10 -2.12111e-09 -9.23529e-10 1.40302e-09 -3.66342e-09 -1.58084e-09 8.04218e-10 -2.12111e-09 -9.23519e-10 -7.73091 5.47488 -0.417314 8.04222e-10 -2.12111e-09 -9.23529e-10 -2.90554 0.965183 -0.102902 8.04212e-10 -2.12111e-09 -9.23527e-10 -10.2786 0.731801 -0.0259123 8.0422e-10 -2.12111e-09 -9.23533e-10 -2.22167 -0.733487 0.20892 -2.03217e-16 0.0 -3.88251e-19 -13.561 27.6929 2.88831 0.0395116 8.88225 0.641716 -7.39119 -10.8878 -23.6572 2.03217e-16 0.0 3.88251e-19 59.0721 -49.4787 49.0657 1.25018 61.2003 -1.26444 -0.0543935 1.7727 -5.3004
-153.268 64.0795 -77.9802 2.3646 59.2264 17.9854 -14.5815 22.2496 25.5943 1.37548 1.70102 6.38895 -13.4233 -21.8578 -3.62121 -11.591 -27.9305 1.70618 -0.0 0.0 0.0 -0.0 0.0 0.0 -1.65129e-13 4.717e-13 -7.61182e-14 67.0838 -15.1879 26.0058 -7.48198 -2.70471 13.2302 -2.8666 42.0002 7.30914 -6.56994e-10 -5.51441e-10 8.45117e-10 -1.09489e-09 -9.30534e-10 1.48038e-09 -6.56988e-10 -5.51437e-10 8.45095e-10 7.73091 5.47488 0.417314 -6.56994e-10 -5.51442e-10 8.45115e-10 2.90554 0.965183 0.102902 -6.56995e-10 -5.51443e-10 8.45115e-10 10.2786 0.731801 0.0259123 -6.57001e-10 -5.51441e-10 8.45127e-10 2.22167 -0.733487 -0.20892 -1.65271e-13 4.71681e-13 -7.64246e-14 -44.0207 35.087 -3.01512 16.8544 -9.49753 -31.5195 0.659251 -22.4087 3.32261 9.90904e-10 -1.94297e-09 -6.72531e-10 1.72624e-09 -3.35508e-09 -1.14654e-09 9.90904e-10 -1.94298e-09 -6.72522e-10 -7.73091 5.47488 -0.417314 9.90906e-10 -1.94298e-09 -6.72533e-10 -2.90554 0.965183 -0.102902 9.90898e-10 -1.94297e-09 -6.72532e-10 -10.2786 0.731801 -0.0259123 9.90904e-10 -1.94297e-09 -6.72538e-10 -2.22167 -0.733487 0.20892 -2.03217e-16 0.0 -3.88251e-19 -12.0517 24.7994 0.813741 0.00302324 14.9525 0.721379 -7.88359 -11.3194 -24.1655 2.03217e-16 0.0 3.88251e-19 60.1895 -50.4227 50.0642 1.38574 62.7925 -1.34124 -0.412478 0.628519 -6.83097
-151.794 63.4583 -77.4876 1.9566 60.2629 17.3548 -15.4768 22.4442 25.1911 1.57073 1.76307 6.21001 -14.3309 -19.8327 -4.67229 -10.4933 -29.7631 -0.21786 -0.0 0.0 0.0 -0.0 0.0 0.0 -1.17658e-13 1.34802e-12 -1.67228e-13 66.1027 -12.1427 23.7347 -8.64171 -3.35591 15.2779 -2.33897 39.1531 6.5708 2.33955e-10 -3.213e-11 2.74749e-10 4.11136e-10 -4.7597e-11 4.70308e-10 2.33962e-10 -3.21264e-11 2.74727e-10 7.73091 5.47488 0.417314 2.33958e-10 -3.21319e-11 2.74746e-10 2.90554 0.965183 0.102902 2.33956e-10 -3.21334e-11 2.74748e-10 10.2786 0.731801 0.0259123 2.33949e-10 -3.21308e-11 2.74759e-10 2.22167 -0.733487 -0.20892 -1.17761e-13 1.348e-12 -1.67526e-13 -41.9403 33.53 -6.83944 17.2372 -9.88944 -32.3306 0.635831 -22.0478 3.26295 1.00538e-09 -1.61761e-09 -4.21284e-10 1.74959e-09 -2.7924e-09 -7.13208e-10 1.00538e-09 -1.61762e-09 -4.21274e-10 -7.73091 5.47488 -0.417314 1.00538e-09 -1.61761e-09 -4.21287e-10 -2.90554 0.965183 -0.102902 1.00538e-09 -1.61761e-09 -4.21287e-10 -10.2786 0.731801 -0.0259123 1.00538e-09 -1.61761e-09 -4.21293e-10 -2.22167 -0.733487 0.20892 -2.03217e-16 0.0 -3.88251e-19 -10.9061 22.1221 -1.29633 -0.0494141 20.6417 0.788909 -7.86849 -11.4203 -23.6365 2.03217e-16 0.0 3.88251e-19 61.1992 -51.2044 50.9676 1.52786 64.2643 -1.42522 -0.779059 -0.283636 -8.21564
-150.646 62.8246 -77.1191 1.7306 62.0374 17.4473 -16.2507 23.2121 24.7684 1.67295 1.72135 6.01888 -14.7408 -19.4541 -5.54873 -10.0854 -29.9727 -1.81252 -0.0 0.0 0.0 -0.0 0.0 0.0 -8.71433e-14 2.03278e-12 -2.15939e-13 65.559 -9.96797 22.009 -9.90606 -4.14013 17.5331 -1.85953 35.9798 5.83183 7.14455e-10 3.82985e-10 1.0362e-10 1.23133e-09 6.69612e-10 1.62772e-10 7.14464e-10 3.82986e-10 1.03601e-10 7.73091 5.47488 0.417314 7.1446e-10 3.82981e-10 1.03615e-10 2.90554 0.965183 0.102902 7.14458e-10 3.82979e-10 1.0362e-10 10.2786 0.731801 0.0259123 7.1445e-10 3.82983e-10 1.03629e-10 2.22167 -0.733487 -0.20892 -8.72093e-14 2.03276e-12 -2.16216e-13 -40.2972 31.9899 -10.5478 17.705 -10.3796 -33.3439 0.621331 -21.7851 3.22048 8.06419e-10 -1.03078e-09 -1.87623e-10 1.40064e-09 -1.77782e-09 -3.12201e-10 8.06418e-10 -1.03079e-09 -1.87614e-10 -7.73091 5.47488 -0.417314 8.0642e-10 -1.03078e-09 -1.87627e-10 -2.90554 0.965183 -0.102902 8.06414e-10 -1.03078e-09 -1.87627e-10 -10.2786 0.731801 -0.0259123 8.06418e-10 -1.03078e-09 -1.87636e-10 -2.22167 -0.733487 0.20892 -2.03217e-16 0.0 -3.88251e-19 -10.0588 19.8554 -3.54919 -0.102534 25.7313 0.830309 -7.18026 -11.0418 -21.7157 2.03217e-16 0.0 3.88251e-19 62.1519 -51.8289 51.7925 1.6791 65.6245 -1.52091 -1.10512 -0.819369 -9.44109
